HIERARCHY
ROOT Hips
{
	OFFSET 0.000000 83.214638 0.000000
	CHANNELS 6 Xposition Yposition Zposition Xrotation Yrotation Zrotation
	JOINT Pelvis
	{
		OFFSET 0.000000 0.000000 0.000000
		CHANNELS 3 Xrotation Yrotation Zrotation
		JOINT LeftUpLeg
		{
			OFFSET 8.479700 -4.795502 -0.379100
			CHANNELS 3 Xrotation Yrotation Zrotation
			JOINT LeftLeg
			{
				OFFSET 0.024144 -32.555107 0.112900
				CHANNELS 3 Xrotation Yrotation Zrotation
				JOINT LeftFoot
				{
					OFFSET -0.024144 -32.638630 -3.012600
					CHANNELS 3 Xrotation Yrotation Zrotation
					JOINT LeftToeBase
					{
						OFFSET 0.970200 -13.225400 11.864200
						CHANNELS 3 Xrotation Yrotation Zrotation
						End Site
						{
							OFFSET 0.000000 12.319262 0.000000
						}
					}
					JOINT LFootTongue
					{
						OFFSET 1.142400 -1.059800 6.665200
						CHANNELS 3 Xrotation Yrotation Zrotation
						End Site
						{
							OFFSET 0.000000 12.319262 0.000000
						}
					}
				}
				JOINT LeftPantLeg
				{
					OFFSET 0.918482 -16.533964 -2.284700
					CHANNELS 3 Xrotation Yrotation Zrotation
					End Site
					{
						OFFSET 0.350399 24.744368 0.000000
					}
				}
			}
		}
		JOINT RightUpLeg
		{
			OFFSET -8.479700 -4.795502 -0.379100
			CHANNELS 3 Xrotation Yrotation Zrotation
			JOINT RightLeg
			{
				OFFSET -0.023144 -32.555092 0.112900
				CHANNELS 3 Xrotation Yrotation Zrotation
				JOINT RightFoot
				{
					OFFSET 0.023144 -32.638641 -3.012700
					CHANNELS 3 Xrotation Yrotation Zrotation
					JOINT RightToeBase
					{
						OFFSET -0.970200 -13.225400 11.864200
						CHANNELS 3 Xrotation Yrotation Zrotation
						End Site
						{
							OFFSET 0.000000 12.319244 0.000000
						}
					}
					JOINT RFootTongue
					{
						OFFSET -1.142200 -1.059800 6.665200
						CHANNELS 3 Xrotation Yrotation Zrotation
						End Site
						{
							OFFSET 0.000000 12.319243 0.000000
						}
					}
				}
				JOINT RightPantLeg
				{
					OFFSET -0.919482 -16.533978 -2.284800
					CHANNELS 3 Xrotation Yrotation Zrotation
					End Site
					{
						OFFSET -0.350400 24.744419 0.000000
					}
				}
			}
		}
	}
	JOINT Spine
	{
		OFFSET 0.000000 7.722000 1.166200
		CHANNELS 3 Xrotation Yrotation Zrotation
		JOINT Spine1
		{
			OFFSET 0.000000 12.024101 0.248800
			CHANNELS 3 Xrotation Yrotation Zrotation
			JOINT Spine2
			{
				OFFSET 0.000000 11.502998 -0.491200
				CHANNELS 3 Xrotation Yrotation Zrotation
				JOINT Neck
				{
					OFFSET 0.000000 18.430702 -3.123100
					CHANNELS 3 Xrotation Yrotation Zrotation
					JOINT Head
					{
						OFFSET 0.000000 9.051102 1.034000
						CHANNELS 3 Xrotation Yrotation Zrotation
						JOINT HairB
						{
							OFFSET 0.208400 24.786102 24.822300
							CHANNELS 3 Xrotation Yrotation Zrotation
							End Site
							{
								OFFSET 0.000000 32.263779 0.000000
							}
						}
						JOINT HairA
						{
							OFFSET -7.081100 24.428299 23.196600
							CHANNELS 3 Xrotation Yrotation Zrotation
							End Site
							{
								OFFSET 0.000000 32.263779 0.000000
							}
						}
						JOINT Hat
						{
							OFFSET 16.728800 15.048294 -15.439601
							CHANNELS 3 Xrotation Yrotation Zrotation
							End Site
							{
								OFFSET 0.000000 32.263779 0.000000
							}
						}
					}
				}
				JOINT LeftShoulder
				{
					OFFSET 6.197800 13.665199 -4.064700
					CHANNELS 3 Xrotation Yrotation Zrotation
					JOINT LeftArm
					{
						OFFSET 7.778100 -0.187103 -1.709300
						CHANNELS 3 Xrotation Yrotation Zrotation
						JOINT LeftForeArm
						{
							OFFSET 22.049376 0.000000 0.000000
							CHANNELS 3 Xrotation Yrotation Zrotation
							JOINT LeftHand
							{
								OFFSET 23.009392 0.000000 0.000000
								CHANNELS 3 Xrotation Yrotation Zrotation
								JOINT LeftHandThumb1
								{
									OFFSET 3.507191 -2.063065 3.133727
									CHANNELS 3 Xrotation Yrotation Zrotation
									JOINT LeftHandThumb2
									{
										OFFSET 3.101337 -1.790558 1.790558
										CHANNELS 3 Xrotation Yrotation Zrotation
										JOINT LeftHandThumb3
										{
											OFFSET 3.058640 -1.765907 1.765906
											CHANNELS 3 Xrotation Yrotation Zrotation
											End Site
											{
												OFFSET -0.415260 3.926476 -0.049563
											}
										}
									}
								}
								JOINT LeftHandIndex1
								{
									OFFSET 11.334419 -0.901459 3.706815
									CHANNELS 3 Xrotation Yrotation Zrotation
									JOINT LeftHandIndex2
									{
										OFFSET 3.283112 0.000000 0.000000
										CHANNELS 3 Xrotation Yrotation Zrotation
										JOINT LeftHandIndex3
										{
											OFFSET 3.323853 0.000000 0.000000
											CHANNELS 3 Xrotation Yrotation Zrotation
											End Site
											{
												OFFSET -1.135597 3.097809 0.402452
											}
										}
									}
								}
								JOINT LeftHandMiddle1
								{
									OFFSET 11.335861 0.000000 0.000000
									CHANNELS 3 Xrotation Yrotation Zrotation
									JOINT LeftHandMiddle2
									{
										OFFSET 3.410492 0.000000 0.000000
										CHANNELS 3 Xrotation Yrotation Zrotation
										JOINT LeftHandMiddle3
										{
											OFFSET 3.312172 0.000000 0.000000
											CHANNELS 3 Xrotation Yrotation Zrotation
											End Site
											{
												OFFSET -1.150200 3.080154 0.400270
											}
										}
									}
								}
								JOINT LeftHandRing1
								{
									OFFSET 11.514786 -0.013176 -3.003090
									CHANNELS 3 Xrotation Yrotation Zrotation
									JOINT LeftHandRing2
									{
										OFFSET 3.053307 0.000000 0.000000
										CHANNELS 3 Xrotation Yrotation Zrotation
										JOINT LeftHandRing3
										{
											OFFSET 3.295807 0.000000 0.000000
											CHANNELS 3 Xrotation Yrotation Zrotation
											End Site
											{
												OFFSET -1.281006 3.013344 0.375733
											}
										}
									}
								}
								JOINT LeftHandPinky1
								{
									OFFSET 10.518692 -0.960396 -5.730441
									CHANNELS 3 Xrotation Yrotation Zrotation
									JOINT LeftHandPinky2
									{
										OFFSET 2.861649 0.000000 0.000000
										CHANNELS 3 Xrotation Yrotation Zrotation
										JOINT LeftHandPinky3
										{
											OFFSET 2.863380 0.000000 0.000000
											CHANNELS 3 Xrotation Yrotation Zrotation
											End Site
											{
												OFFSET -0.843597 2.711159 0.369971
											}
										}
									}
								}
							}
							JOINT LSleeve
							{
								OFFSET 6.676277 -0.344902 -1.011730
								CHANNELS 3 Xrotation Yrotation Zrotation
								End Site
								{
									OFFSET 0.000000 14.885353 0.000000
								}
							}
						}
					}
				}
				JOINT RightShoulder
				{
					OFFSET -6.197800 13.665199 -4.064700
					CHANNELS 3 Xrotation Yrotation Zrotation
					JOINT RightArm
					{
						OFFSET -7.778100 -0.187103 -1.709300
						CHANNELS 3 Xrotation Yrotation Zrotation
						JOINT RightForeArm
						{
							OFFSET -22.049376 0.000000 0.000000
							CHANNELS 3 Xrotation Yrotation Zrotation
							JOINT RightHand
							{
								OFFSET -23.009392 0.000000 0.000000
								CHANNELS 3 Xrotation Yrotation Zrotation
								JOINT RightHandThumb1
								{
									OFFSET -3.507191 -2.063065 3.133727
									CHANNELS 3 Xrotation Yrotation Zrotation
									JOINT RightHandThumb2
									{
										OFFSET -3.101337 -1.790558 1.790558
										CHANNELS 3 Xrotation Yrotation Zrotation
										JOINT RightHandThumb3
										{
											OFFSET -3.058640 -1.765907 1.765906
											CHANNELS 3 Xrotation Yrotation Zrotation
											End Site
											{
												OFFSET 0.415260 3.926476 -0.049563
											}
										}
									}
								}
								JOINT RightHandIndex1
								{
									OFFSET -11.334419 -0.901459 3.706815
									CHANNELS 3 Xrotation Yrotation Zrotation
									JOINT RightHandIndex2
									{
										OFFSET -3.283112 0.000000 0.000000
										CHANNELS 3 Xrotation Yrotation Zrotation
										JOINT RightHandIndex3
										{
											OFFSET -3.323853 0.000000 0.000000
											CHANNELS 3 Xrotation Yrotation Zrotation
											End Site
											{
												OFFSET 1.135597 3.097809 0.402452
											}
										}
									}
								}
								JOINT RightHandMiddle1
								{
									OFFSET -11.335861 0.000000 0.000000
									CHANNELS 3 Xrotation Yrotation Zrotation
									JOINT RightHandMiddle2
									{
										OFFSET -3.410492 0.000000 0.000000
										CHANNELS 3 Xrotation Yrotation Zrotation
										JOINT RightHandMiddle3
										{
											OFFSET -3.312172 0.000000 0.000000
											CHANNELS 3 Xrotation Yrotation Zrotation
											End Site
											{
												OFFSET 1.150200 3.080154 0.400270
											}
										}
									}
								}
								JOINT RightHandRing1
								{
									OFFSET -11.514786 -0.013176 -3.003090
									CHANNELS 3 Xrotation Yrotation Zrotation
									JOINT RightHandRing2
									{
										OFFSET -3.053307 0.000000 0.000000
										CHANNELS 3 Xrotation Yrotation Zrotation
										JOINT RightHandRing3
										{
											OFFSET -3.295807 0.000000 0.000000
											CHANNELS 3 Xrotation Yrotation Zrotation
											End Site
											{
												OFFSET 1.281006 3.013344 0.375733
											}
										}
									}
								}
								JOINT RightHandPinky1
								{
									OFFSET -10.518692 -0.960396 -5.730441
									CHANNELS 3 Xrotation Yrotation Zrotation
									JOINT RightHandPinky2
									{
										OFFSET -2.861649 0.000000 0.000000
										CHANNELS 3 Xrotation Yrotation Zrotation
										JOINT RightHandPinky3
										{
											OFFSET -2.863380 0.000000 0.000000
											CHANNELS 3 Xrotation Yrotation Zrotation
											End Site
											{
												OFFSET 0.843597 2.711159 0.369971
											}
										}
									}
								}
							}
							JOINT RSleeve
							{
								OFFSET -6.676277 -0.344902 -1.011730
								CHANNELS 3 Xrotation Yrotation Zrotation
								End Site
								{
									OFFSET 0.000000 14.885353 0.000000
								}
							}
						}
					}
				}
				JOINT Backpack
				{
					OFFSET 0.000000 -2.471497 36.677502
					CHANNELS 3 Xrotation Yrotation Zrotation
					End Site
					{
						OFFSET 0.000000 20.427315 0.000000
					}
				}
				JOINT Hood
				{
					OFFSET 0.000000 18.754097 -10.431000
					CHANNELS 3 Xrotation Yrotation Zrotation
					JOINT Hood1
					{
						OFFSET 0.000000 -5.011002 -7.685901
						CHANNELS 3 Xrotation Yrotation Zrotation
						End Site
						{
							OFFSET 0.000000 9.175140 0.000000
						}
					}
				}
				JOINT LHoodieString
				{
					OFFSET 5.250500 16.397697 3.089900
					CHANNELS 3 Xrotation Yrotation Zrotation
					JOINT LHoodieString1
					{
						OFFSET 0.257700 -6.364304 3.694600
						CHANNELS 3 Xrotation Yrotation Zrotation
						JOINT LHoodieString2
						{
							OFFSET 0.000000 -9.643799 2.679100
							CHANNELS 3 Xrotation Yrotation Zrotation
							End Site
							{
								OFFSET 0.000000 10.009018 0.000000
							}
						}
					}
				}
				JOINT RHoodieString
				{
					OFFSET -5.250500 16.397697 3.089900
					CHANNELS 3 Xrotation Yrotation Zrotation
					JOINT RHoodieString1
					{
						OFFSET -0.257700 -6.364304 3.694600
						CHANNELS 3 Xrotation Yrotation Zrotation
						JOINT RHoodieString2
						{
							OFFSET 0.000000 -9.643799 2.679100
							CHANNELS 3 Xrotation Yrotation Zrotation
							End Site
							{
								OFFSET 0.000000 10.009018 0.000000
							}
						}
					}
				}
			}
			JOINT LBackpack_Strap
			{
				OFFSET 15.223200 -7.719803 -6.610900
				CHANNELS 3 Xrotation Yrotation Zrotation
				End Site
				{
					OFFSET 0.000000 16.040596 0.000000
				}
			}
			JOINT RBackpack_Strap
			{
				OFFSET -15.223000 -7.719803 -6.610900
				CHANNELS 3 Xrotation Yrotation Zrotation
				End Site
				{
					OFFSET 0.000000 16.040596 0.000000
				}
			}
		}
	}
	JOINT BoyFacialAnim_Joint
	{
		OFFSET 1.000000 -82.208099 -1.550900
		CHANNELS 3 Xrotation Yrotation Zrotation
		End Site
		{
			OFFSET 0.000000 30.012791 0.000000
		}
	}
}
MOTION
Frames: 4
Frame Time: 0.033333
-1.067774 46.849449 -2.271019 27.630878 13.318305 13.301744 -0.000001 -0.000001 -0.000001 -117.691304 14.460349 13.287954 84.373525 -8.788949 -9.856640 6.283385 -10.691514 5.549952 -0.000000 -0.000000 0.000000 -0.000000 -0.000000 0.000000 0.000000 0.000001 -0.000001 -47.612907 10.469033 -26.088085 114.755880 8.613065 -10.280629 11.074178 12.306252 13.652857 0.000002 -0.000000 0.000000 0.000002 -0.000000 0.000000 0.000000 -0.000000 -0.000001 69.681344 8.268169 8.267037 -6.189610 0.019061 -0.056543 -6.186459 0.229298 -0.067368 -1.251824 -3.026739 -1.805546 -28.850193 -20.848592 4.107723 0.000003 0.000000 0.000000 0.000003 0.000000 0.000000 0.000003 0.000000 0.000000 1.243088 15.149020 -9.377968 -25.760627 -20.700399 -32.622295 0.000033 -117.643042 0.000034 2.228000 -1.203643 16.424851 4.153488 9.131219 -13.160105 14.126312 18.698720 -20.945062 -0.000000 0.000001 0.000002 2.401295 5.228495 -49.312026 3.026301 5.704381 -55.865828 -0.000000 0.000000 -0.000003 2.120269 4.974392 -46.602101 2.965413 5.662834 -55.251128 0.000001 -0.000000 0.000004 2.899620 5.617008 -54.977979 2.427664 5.250953 -49.600837 0.000001 0.000000 -0.000004 4.275377 6.789855 -50.013428 2.220161 0.979608 -47.436299 -0.000000 0.000002 0.000000 -0.000000 0.000000 0.000004 28.918068 31.738195 -5.587529 -60.633153 -1.198546 10.188510 0.000030 118.033401 -0.000032 -8.680546 3.591058 -18.993347 -3.090874 0.281046 -2.322347 16.919938 -14.683216 10.857659 0.000001 0.000001 0.000001 0.126753 -1.324253 10.934469 0.013145 -0.428345 3.517142 0.000000 0.000001 0.000002 0.495843 -2.583175 21.780575 0.205191 -1.680026 13.926375 0.000000 -0.000001 0.000005 1.120880 -3.791631 33.648346 0.831191 -3.301743 28.254141 -0.000000 -0.000000 0.000002 1.698686 -4.558316 40.859202 0.227813 -1.768722 14.678066 -0.000000 -0.000000 -0.000002 -0.000000 0.000000 -0.000004 -0.000000 -0.000002 -0.000000 -0.000000 -0.000002 -0.000000 -0.000000 -0.000002 -0.000000 -0.000000 -0.000002 -0.000000 -0.000000 -0.000002 -0.000000 0.000000 -0.000002 -0.000000 -0.000000 -0.000002 -0.000000 -0.000000 -0.000002 -0.000000 0.000000 -0.000002 -0.000000 0.000000 -0.000000 -0.000000 0.000000 -0.000000 -0.000000 -0.000001 -0.000001 -0.000001 
-0.287077 46.889587 -1.577053 26.325465 10.898351 13.573180 -0.000001 -0.000000 -0.000001 -116.516470 12.010849 12.701613 86.810571 -8.843288 -9.864033 3.576858 -8.277357 4.423229 -0.000000 0.000000 -0.000000 -0.000000 0.000000 0.000000 -0.000000 -0.000000 0.000000 -44.755634 10.244876 -26.207620 113.802385 8.701002 -10.249780 9.420496 9.983840 11.306733 -0.000001 -0.000000 -0.000000 -0.000001 -0.000000 -0.000000 0.000000 -0.000000 -0.000000 69.343202 7.409337 7.337362 -5.976684 0.007327 0.010835 -5.974395 0.203000 0.002115 -1.325664 -2.888935 -2.275729 -29.074148 -20.183685 3.504006 -0.000001 0.000000 -0.000001 -0.000001 0.000000 -0.000001 -0.000001 0.000000 -0.000001 1.274474 14.962627 -9.441338 -25.100187 -20.644680 -33.324886 0.000006 -117.125628 -0.000007 2.909863 -1.539724 16.854564 3.343708 8.518617 -14.912629 15.687999 20.017970 -20.158072 -0.000001 -0.000001 0.000001 2.657216 5.437147 -52.064961 3.323484 5.893903 -58.806296 0.000000 -0.000000 -0.000007 2.359981 5.193173 -49.329358 3.230797 5.837079 -57.899493 0.000001 -0.000001 -0.000000 3.155252 5.789476 -57.569595 2.702837 5.472226 -52.544878 0.000001 -0.000001 0.000001 4.517619 6.849120 -52.613903 2.452884 1.183888 -50.006622 -0.000001 0.000001 -0.000002 -0.000003 -0.000001 0.000008 28.668780 31.686009 -5.438063 -59.205336 -0.739729 12.848851 0.000027 118.644211 -0.000034 -7.032147 3.642309 -17.958985 -2.758760 0.131969 -2.196143 17.989135 -14.939659 11.075406 -0.000001 -0.000002 0.000000 0.177617 -1.564636 12.952030 0.034770 -0.695853 5.719675 -0.000001 0.000000 0.000004 0.571974 -2.766444 23.449424 0.261271 -1.891735 15.725254 0.000001 0.000001 -0.000000 1.211570 -3.928016 35.075893 0.948381 -3.510669 30.226029 0.000001 0.000000 0.000000 1.794823 -4.666810 42.054820 0.291464 -1.995811 16.615388 0.000000 -0.000000 -0.000002 -0.000000 0.000000 -0.000002 -0.000000 -0.000000 -0.000001 -0.000000 -0.000000 -0.000001 -0.000000 -0.000000 -0.000001 -0.000000 -0.000000 -0.000001 -0.000000 -0.000000 -0.000000 -0.000000 -0.000000 -0.000000 -0.000000 -0.000000 -0.000001 -0.000000 -0.000000 -0.000000 -0.000000 -0.000000 -0.000000 0.000000 0.000002 -0.000000 0.000000 0.000002 -0.000000 -0.000001 -0.000000 -0.000001 
0.616076 47.070915 -0.752064 24.754025 8.694857 14.131229 0.000000 -0.000000 -0.000000 -114.660161 10.264321 11.728571 89.004960 -8.865795 -9.862549 0.774049 -5.823253 3.509256 0.000000 -0.000000 -0.000000 0.000000 -0.000000 -0.000000 0.000000 -0.000000 -0.000000 -41.567210 9.803534 -26.743491 112.356687 8.687608 -10.221125 8.614066 7.004169 8.778006 0.000000 -0.000000 0.000000 0.000000 -0.000000 0.000000 0.000000 0.000000 0.000000 69.298259 6.510530 6.844202 -5.897015 -0.018346 -0.042535 -5.895490 0.158661 -0.044847 -1.601804 -2.749359 -2.644747 -29.457370 -19.476663 2.919536 0.000001 -0.000000 -0.000000 0.000001 -0.000000 -0.000000 0.000001 -0.000000 -0.000000 1.316864 14.621931 -9.513166 -24.283911 -20.789170 -34.370147 0.000033 -116.680190 0.000029 3.893242 -2.266133 16.893131 2.449049 7.925672 -16.748536 17.234555 21.385076 -19.338069 0.000000 -0.000001 0.000001 2.925108 5.634781 -54.841696 3.633300 6.069718 -61.778392 -0.000001 -0.000002 -0.000002 2.611979 5.402073 -52.080145 3.506654 6.000420 -60.574298 0.000002 -0.000002 -0.000000 3.420699 5.951602 -60.183324 2.991439 5.680691 -55.514466 -0.000000 -0.000001 -0.000006 4.765099 6.903011 -55.235624 2.696521 1.379007 -52.598392 -0.000001 0.000002 -0.000003 0.000001 -0.000000 0.000004 28.237390 31.758150 -5.282408 -58.006973 -1.608656 15.413647 -0.000027 119.829085 0.000029 -4.550289 3.833182 -16.289757 -2.400362 -0.087282 -1.960559 19.113530 -15.197547 11.298014 -0.000000 -0.000002 -0.000001 0.240811 -1.817579 15.093308 0.069241 -0.980737 8.075111 -0.000000 0.000000 0.000000 0.658500 -2.958473 25.220757 0.328133 -2.114662 17.637348 0.000001 0.000000 -0.000000 1.311441 -4.070483 36.591089 1.078100 -3.723992 32.281916 -0.000000 -0.000001 0.000002 1.899327 -4.779719 43.323856 0.366201 -2.230786 18.641439 -0.000000 -0.000001 0.000000 -0.000000 -0.000001 -0.000004 -0.000000 0.000000 0.000000 -0.000000 0.000000 0.000000 -0.000000 0.000000 0.000000 -0.000000 0.000000 0.000000 -0.000000 0.000000 0.000000 -0.000000 0.000000 -0.000000 -0.000000 0.000000 0.000000 -0.000000 0.000000 0.000000 -0.000000 0.000000 -0.000000 -0.000000 0.000001 0.000000 -0.000000 0.000001 0.000000 0.000000 -0.000000 -0.000000 
1.631353 47.337914 0.223824 22.931293 6.555971 14.629193 -0.000001 0.000000 0.000001 -112.294402 8.905590 10.533695 91.136908 -8.886458 -9.856440 -2.134297 -3.452258 2.894070 0.000000 -0.000000 -0.000000 0.000000 -0.000000 0.000000 -0.000000 0.000000 -0.000000 -37.903469 9.222668 -27.373706 110.275603 8.710782 -10.192661 8.367316 4.149466 5.894260 0.000001 -0.000000 -0.000000 0.000001 -0.000000 -0.000000 0.000001 0.000000 -0.000001 69.612564 5.766070 6.605814 -6.000472 -0.041872 -0.152901 -5.999597 0.118732 -0.148522 -1.868005 -2.615095 -2.823662 -29.918206 -18.674620 2.379217 0.000001 -0.000001 0.000001 0.000001 -0.000001 0.000001 0.000001 -0.000001 0.000001 1.351212 14.374452 -9.569288 -23.233759 -21.011861 -35.254250 -0.000014 -116.416831 -0.000005 4.749553 -3.175318 16.386650 1.526375 7.393331 -18.589065 18.757091 22.796830 -18.484509 -0.000000 -0.000001 0.000001 3.203600 5.820015 -57.631511 3.953844 6.230205 -64.770117 -0.000003 0.000000 -0.000002 2.874980 5.599667 -54.843933 3.791569 6.151546 -63.265051 -0.000000 -0.000001 -0.000002 3.694577 6.102255 -62.809163 3.291885 5.874765 -58.498193 0.000000 -0.000002 0.000001 5.017183 6.950956 -57.868580 2.949795 1.563638 -55.201698 -0.000000 0.000001 -0.000005 -0.000000 -0.000001 0.000001 27.807594 31.763563 -5.086954 -56.687684 -3.395578 17.966632 -0.000002 121.233822 -0.000002 -3.097878 4.105511 -16.280282 -1.988189 -0.329453 -1.699932 20.289634 -15.454650 11.523566 -0.000002 -0.000000 -0.000001 0.317596 -2.081339 17.350187 0.118557 -1.281071 10.573627 0.000000 -0.000001 0.000003 0.755936 -3.157951 27.087789 0.406689 -2.347309 19.655218 0.000002 0.000000 0.000001 1.420591 -4.217997 38.188158 1.220742 -3.940225 34.415602 0.000001 0.000000 0.000000 2.012158 -4.896143 44.661487 0.452670 -2.472280 20.749792 -0.000001 -0.000001 0.000000 -0.000000 -0.000001 -0.000003 0.000000 0.000000 0.000000 0.000000 0.000000 0.000000 0.000000 0.000000 0.000000 0.000000 0.000000 0.000000 0.000000 0.000000 -0.000000 -0.000000 0.000002 0.000001 0.000000 0.000000 0.000000 0.000000 0.000000 -0.000000 -0.000000 0.000002 0.000001 -0.000000 0.000003 0.000000 -0.000000 0.000003 0.000000 -0.000001 0.000000 0.000001 
